<?xml version="1.0" encoding="UTF-8"?>
<svg width="330px" height="374px" viewBox="0 0 330 374" version="1.1" xmlns="http://www.w3.org/2000/svg" xmlns:xlink="http://www.w3.org/1999/xlink">
    <!-- Generator: Sketch 55.2 (78181) - https://sketchapp.com -->
    <title>Group 6 Copy 2</title>
    <desc>Created with Sketch.</desc>
    <g id="Home" stroke="none" stroke-width="1" fill="none" fill-rule="evenodd">
        <g id="Leading-Collection-Website-Service-German-speaking-markets" transform="translate(-860.000000, -363.000000)">
            <g id="Group-6-Copy-2" transform="translate(860.000000, 363.000000)">
                <path d="M244.313725,267.898023 C248.717325,271.370819 259.485305,275.880055 264.867483,271.993403 C267.176202,270.255205 269.901722,265.954696 272.000228,263.871019 C273.185394,262.690628 272.627243,260.956029 274.095109,260.189495 C275.562976,259.42656 279.339561,260.470198 280.807428,260.815678 C285.211028,261.718965 288.846263,264.497202 293.249863,265.537241 C297.446875,266.508904 302.270901,265.954696 306.674501,265.954696 C314.571986,265.954696 321.074092,268.588983 328.627262,269.700998 C328.696125,271.090116 328.696125,272.547611 328.696125,274.005105 C328.554775,280.738371 327.64506,287.611988 328.485912,294.208501 C328.485912,294.553982 328.485912,294.831085 328.554775,295.176566 C329.112927,298.789713 331.700721,305.454602 328.203212,308.643097 C324.288901,312.115893 319.606225,307.73981 315.623051,308.301216 C314.365397,312.950804 319.675088,312.601725 319.747575,316.697105 C319.888925,321.278317 314.224047,322.041252 311.915328,324.81589 C307.653078,329.954909 313.386819,335.648135 311.288314,339.883866 C311.146964,340.16097 310.867888,340.506451 310.519949,340.783555 C308.21123,342.726881 302.129551,344.810558 299.962182,346.127702 C290.524343,351.820928 278.292121,352.655839 267.944567,355.639204 C259.902107,357.999986 253.052063,362.163742 244.172375,359.802961 C239.841263,358.626169 236.064677,357.514154 232.081503,356.819595 C234.107522,355.916308 235.785601,354.944645 235.434038,353.210047 C234.944749,350.572161 224.107906,351.126369 222.013025,350.503785 C219.635444,349.809226 218.167577,347.934276 216.069071,346.894236 C213.133338,345.436741 209.42924,345.29639 206.283293,344.601831 C201.180191,343.42144 196.635241,340.783555 193.420432,336.619798 C190.763775,333.215378 190.201998,327.317023 184.819821,328.360661 C179.995795,329.328726 177.828426,332.938274 172.236035,332.596393 C167.691085,332.31569 163.077272,329.954909 159.373174,333.427705 C155.737939,336.824927 152.943555,338.217644 148.257255,335.021952 C146.579176,333.913536 144.411807,332.384067 142.313301,331.829859 C142.175576,331.207274 141.8965,330.649468 141.265861,330.026884 C138.819416,327.662503 136.72091,330.649468 134.13674,331.135299 C130.849444,331.829859 130.570368,329.541052 129.240227,327.317023 C127.91371,325.096593 126.514707,324.261682 123.999399,323.430371 C121.342742,322.458707 117.707507,321.206342 118.407009,318.222976 C118.96516,315.725442 121.480468,313.433036 122.390183,311.007477 C123.437623,308.365993 123.437623,306.285914 122.527908,304.551316 C123.231035,304.479341 123.930536,304.551316 124.698901,304.688068 C130.570368,305.796484 131.338733,313.296284 135.952546,314.131194 C140.497496,314.89413 142.94394,309.478008 145.249035,306.699771 C148.536331,302.813118 151.544552,307.04885 154.828224,309.478008 C158.952748,312.601725 163.986987,312.187868 169.021226,311.352958 C174.68248,310.381294 178.738141,307.952137 184.540745,307.880162 C187.407615,307.880162 189.85406,307.257577 192.57958,306.494642 C196.214815,305.51938 195.794389,305.659731 198.592397,307.325954 C202.368982,309.618359 206.421019,308.160864 210.056254,311.212606 C211.317532,312.252646 213.064475,315.030883 215.021631,315.099259 C218.515516,315.171234 216.909923,311.975542 217.399212,309.618359 C217.888501,307.462706 218.867079,306.563018 218.588003,303.925133 C218.37779,301.704702 217.609425,299.689401 216.837436,297.677699 C216.141558,295.730774 214.111916,292.056447 215.231844,290.113121 C216.210421,288.4433 220.403808,287.403261 222.013025,286.849053 C224.879896,285.87739 226.206412,285.809013 227.884492,283.239504 C229.073283,281.501307 229.142145,279.55798 230.610012,277.963733 C233.339157,275.185496 241.588205,274.490937 241.519342,269.772973 C241.446855,267.620919 240.258064,267.620919 238.862685,266.2318 C236.764179,264.288474 235.365175,261.373485 233.755958,259.081079 C232.849868,257.763936 232.009016,256.443194 231.171788,255.12605 C237.112118,257.206129 239.141761,263.871019 244.313725,267.898023" id="Fill-1" fill="#AFAFAF"></path>
                <path d="M234.379421,27.8972083 C235.846694,29.5690108 235.288768,33.2592531 233.259945,34.3713809 C231.865129,35.1404823 230.046435,33.7467117 229.068252,35.1404823 C225.782283,40.0150685 238.781242,42.315151 240.110845,44.4021961 C241.020193,46.0053933 239.621754,49.2767823 240.458644,51.2988329 C241.998375,55.3357124 247.237086,56.6608777 248.983323,60.4197253 C249.613707,61.7485014 250.102798,63.4852984 250.312926,65.3665276 C251.218651,71.1474257 250.454219,78.459305 247.378379,82.0123367 C242.556301,87.7246296 241.857082,88.4215149 247.237086,94.9679036 C249.403579,97.5460181 252.896053,100.120522 252.96851,103.814375 C252.96851,106.392489 250.454219,108.829782 250.591889,111.263465 C250.802017,114.747891 254.504619,118.300923 254.99371,122.200592 C255.482802,125.612802 254.435784,127.912885 253.598895,131.047063 C252.059163,137.246815 256.671112,141.839758 259.60566,147.064592 C260.725135,149.083032 262.192409,151.939178 262.471372,154.307866 C262.891628,157.651471 260.515007,159.323274 260.167209,162.457452 L260.167209,162.666879 C259.815788,166.985401 262.822793,171.928593 255.413967,171.022281 C251.91787,170.607038 252.758382,169.422694 251.432402,166.913185 C249.89267,164.129255 247.026958,163.363764 244.09241,162.457452 C243.183063,168.306956 243.740989,168.028924 237.592931,169.62851 C235.426438,170.188185 232.843312,170.607038 230.814489,171.51335 C228.437868,172.556873 226.760466,174.578923 224.456303,175.622446 C220.681243,177.294248 216.978641,175.340803 213.555003,176.31572 C211.457345,176.944 209.642273,180.843669 207.265652,177.918918 C203.142794,177.850312 198.320716,181.056707 195.523839,183.840637 C193.777602,185.577434 193.708767,185.927682 191.400981,186.693173 C189.585909,187.249237 186.930325,187.321453 185.600721,188.856045 C182.456046,192.405466 186.372398,197.839726 188.256305,201.111115 C191.053183,206.126523 191.752402,208.910453 191.752402,214.694962 C191.679944,226.115937 204.048518,222.772332 208.80176,230.087822 C210.410327,232.521505 211.877601,235.031014 213.41371,237.471918 L213.482545,237.471918 C214.323057,238.793472 215.163569,240.115027 216.069294,241.436581 C217.677861,243.736664 219.076299,246.661415 221.170334,248.61125 C222.568773,250.00502 223.757083,250.00502 223.825919,252.164282 C223.894754,256.898046 215.652661,257.598542 212.924618,260.382473 C211.457345,261.98567 211.38851,263.935505 210.200199,265.675912 C208.522797,268.254027 207.196816,268.322632 204.331104,269.297549 C202.722537,269.853613 198.530844,270.897136 197.552662,272.572549 C196.433186,274.522384 198.458386,278.212626 199.157606,280.166071 C199.929283,282.1809 200.697337,284.202951 200.907465,286.430817 C201.186429,289.077537 200.208246,289.980238 199.719155,292.14311 C199.230064,294.508187 200.835007,297.714581 197.342534,297.647059 C195.386169,297.57376 193.636309,294.78983 192.379163,293.742696 C188.745397,290.680734 184.694997,292.14311 180.919937,289.843027 C178.12306,288.174836 178.543316,288.030404 174.909549,289.008932 C172.18513,289.774422 169.739673,290.402702 166.873961,290.402702 C161.073701,290.471307 157.019678,292.908601 151.360712,293.887129 C146.328506,294.721224 141.296301,295.136467 137.173443,292.002289 C133.891097,289.564996 130.884092,285.318689 127.598123,289.218358 C125.29396,292.002289 122.848504,297.43655 118.30539,296.671059 C113.693441,295.836963 112.925386,288.312046 107.052668,287.196308 C106.288237,287.059097 105.589018,286.986881 104.886175,287.059097 C104.049286,285.246473 102.371884,283.852703 99.9952631,282.603364 C96.8542104,280.931562 92.9378577,278.700084 89.4453839,278.144021 C87.7679821,277.865989 85.9492873,278.353447 84.2718855,278.003199 C81.5474662,277.374919 77.145645,272.225912 74.1422625,275.36009 C72.2547327,277.309925 75.6783713,278.559263 74.906694,280.722135 C74.2799327,282.393938 72.0446046,281.975084 70.4360378,281.902868 C65.3349974,281.765658 60.3752499,279.602786 55.2705866,279.675002 C51.988241,279.747218 49.3326567,279.815823 46.9560356,278.422053 C46.9560356,278.353447 47.0248706,278.212626 47.0248706,278.144021 C47.6552549,275.425085 47.7240899,272.84697 48.1443461,270.06304 C48.5646023,266.719435 51.6404427,264.422963 51.3578567,261.220179 C51.2201866,259.476161 57.5783726,258.226822 58.9043533,256.620014 C60.5817551,254.532969 60.7918832,251.189364 62.1903219,248.892893 C65.4726675,243.458632 70.0882396,239.208715 72.9503291,233.359211 C73.6495484,231.965441 75.6783713,228.41602 74.7001889,226.881428 C74.0009695,225.837905 72.0446046,226.115937 70.9939641,225.837905 C69.5991484,225.487657 68.5521309,224.794383 67.3601974,224.166103 C65.1248693,223.12258 62.7482482,222.425695 60.5817551,221.23774 C58.9043533,220.266434 57.5095376,218.944879 55.7596778,218.175778 C52.2672041,216.713402 48.4921443,217.273077 44.9996706,215.879306 C42.0651232,214.622746 40.4565564,213.857256 37.1742108,213.857256 C32.1420054,213.857256 31.0225299,211.7666 29.2762931,207.173656 C28.2981106,204.45472 26.3417456,198.605217 22.5666859,198.605217 C21.0994121,198.605217 19.8422665,199.861777 18.2336998,199.926771 C16.556298,199.998988 15.0890243,199.370708 13.5529155,198.883249 C12.9949892,198.746038 12.505898,198.533001 12.0168067,198.327185 C12.2269348,197.698905 12.505898,197.074236 12.7848611,196.518172 C15.0201892,192.33686 19.9835595,193.589809 22.3601807,190.527847 C26.8308369,184.674733 8.79967325,177.57228 21.5196683,175.272198 C28.6459088,173.950643 33.257858,168.028924 31.8630423,160.644828 C31.0949879,156.676554 29.3451281,153.542376 27.3887632,150.408197 C25.5736912,147.41123 25.6425263,145.046152 25.0809771,142.11779 C27.040965,140.240172 28.9284948,138.290337 30.4646036,136.062471 C34.1672054,130.769031 35.496809,125.262554 34.9352598,118.784771 C34.7287546,116.697726 33.399151,112.935267 34.3773335,110.985433 C35.2866809,109.107814 35.8446072,109.663878 37.8009722,109.523057 C43.670067,109.107814 48.6334374,109.107814 53.2453866,104.442655 C56.0422639,101.586508 58.418885,95.9428208 57.5095376,91.9023305 C56.8103183,89.1184002 52.8251304,85.8434004 55.2017515,82.8464326 C56.1110989,81.8029101 58.5565551,81.5248781 59.8137007,80.8316036 C62.40045,79.5750436 64.0778518,77.5529931 65.8240886,75.2601321 C68.4796729,71.7757057 68.9687641,67.944642 67.5014904,63.9041517 C67.2913623,63.2758717 67.0812342,62.6512025 66.8022711,61.9543172 L66.8022711,61.8857119 C67.6427834,61.7485014 68.2695448,61.3260372 68.6209659,60.2139094 C69.7368185,56.7330938 65.3349974,54.5016165 65.6864185,51.2988329 C65.8240886,49.6270303 67.9217466,49.208177 68.2695448,47.6771959 C68.689801,46.0739986 66.9435641,45.1676867 67.2225273,43.7739161 C67.7804536,41.4774444 72.5336958,42.4523616 75.2581152,42.4523616 C78.1238275,42.4523616 84.2030504,41.1308071 86.6485066,42.4523616 C89.0939628,43.8461322 88.8149997,48.8615398 89.7931821,51.1580115 C90.9814927,53.736126 93.3581138,55.7545657 96.4339543,54.9204699 C100.205391,53.9419418 98.9482455,48.9987503 100.694482,46.0739986 C104.328249,39.7370366 115.508513,46.7708839 118.446683,42.1057244 C119.634993,40.2931005 116.559153,36.3212154 116.559153,34.2341704 C116.486695,30.4031067 116.700446,29.7062214 113.972404,26.9186803 C111.737076,24.6908138 107.614218,22.0440941 113.414477,20.6539343 C114.671623,20.3759023 117.048244,21.2786035 118.026427,20.3759023 C119.562535,18.9821318 118.164097,15.707132 117.396042,14.1761509 C116.001227,11.6666417 113.552148,10.0670552 112.994221,7.2109088 C112.6428,5.67992765 112.6428,4.35476236 112.994221,3.31123984 C113.762276,0.592303978 116.486695,-0.451218549 120.471883,0.17706145 C125.641758,1.01115731 129.20669,5.18885822 134.449024,5.81713822 C135.568499,5.9579596 136.546682,6.02656489 137.383571,6.16377546 C140.66954,6.72345018 142.136813,7.83557799 141.086173,12.6415589 C140.249283,16.8228706 140.039155,18.8413104 145.209031,20.235081 C147.237854,20.7911449 149.542017,20.7911449 151.219419,22.0440941 C152.266436,22.8131954 152.617857,24.484998 153.664875,25.1818833 C156.461752,26.9186803 160.026684,24.6222085 163.240194,25.2504885 C165.406687,25.6657311 171.065654,28.3846669 171.134489,30.2658961 C171.134489,34.9996609 162.60981,35.7651515 162.262012,40.0836738 C161.841756,45.5143239 167.431887,41.8962977 170.507728,41.7554763 C172.112672,41.686871 173.304605,42.6617883 174.768256,42.6617883 C178.264353,42.7303936 179.380205,40.5711324 181.546698,38.065234 C186.510069,32.1435145 190.143835,35.6965462 196.853443,34.8624504 C201.954483,34.1655651 205.099159,28.7313042 210.341492,28.9407308 C215.091111,29.1501575 218.445915,33.0498265 219.213969,25.7379472 C219.355262,24.2755713 218.587208,21.4880302 219.496555,20.3036862 C220.822536,18.5632784 226.274998,18.7727051 228.021234,19.8884437 C230.466691,21.4880302 228.789289,22.2571315 229.767471,24.5536033 C230.745654,26.9186803 233.049817,26.2254058 234.379421,27.8972083" id="Fill-3" fill="#FF4E50"></path>
                <path d="M0.0882706313,347.601286 C-0.680234966,344.799396 3.79304761,340.943618 4.84430527,338.279823 C6.31244096,334.213267 7.01207106,329.514378 9.87584192,326.152837 C14.9798791,320.192915 22.7446856,317.249296 29.1754825,312.902914 C31.6223753,311.293008 33.1630115,308.978088 34.3520202,306.383341 C35.5374038,303.788595 35.3996528,302.251371 38.4736752,302.669293 C43.8604644,303.443356 48.4062475,304.35188 50.0846348,298.043085 C52.4590271,299.445847 55.1161714,299.373165 58.4040704,299.304117 C63.5081075,299.231435 68.4707687,301.40826 73.5748058,301.546356 C75.1843176,301.619038 77.4209589,302.040594 78.0517135,300.358006 C78.8202191,298.181181 75.3945691,296.923783 77.2832079,294.96137 C80.2919798,291.803338 84.6927618,296.989197 87.4224067,297.62153 C89.1007939,297.974037 90.9169322,297.483434 92.5953194,297.76326 C96.0898448,298.322911 100.008498,300.568784 103.155021,302.251371 C105.529414,303.508769 107.211426,304.911531 108.048807,306.735849 C108.958689,308.487484 108.958689,310.587993 107.911056,313.255421 C107.001174,315.708438 104.481781,318.019724 103.923527,320.545423 C103.223897,323.558091 106.859798,324.819123 109.516943,325.800329 C112.032711,326.639806 113.431971,327.482917 114.762356,329.725156 C116.089115,331.971028 116.368243,334.282315 119.656141,333.584568 C122.24441,333.093965 124.339676,330.077663 126.790193,332.461632 C127.417323,333.093965 127.69645,333.653616 127.837826,334.282315 C128.39608,336.033951 127.627575,337.858268 127.348447,339.678951 C126.927944,342.415427 130.212218,346.198524 127.207071,347.953794 C123.922798,349.843525 121.055402,346.198524 118.188006,345.707921 C115.668612,349.283874 119.097887,355.033017 117.767503,358.885162 C117.278124,360.502336 115.599737,361.341812 113.783599,360.287924 C111.753584,359.168621 112.59459,356.435779 110.637076,355.102065 C107.418052,353.070604 108.117682,356.504827 106.229044,357.765859 C104.271529,359.030526 101.614385,357.486034 100.429001,356.01059 C99.0986167,354.262588 97.2824785,342.695253 94.3425821,350.26508 C93.4327005,352.510953 93.8532035,354.891287 92.0370653,356.642923 C89.659048,358.816114 88.0495363,358.187415 86.7227766,361.479908 C85.812895,363.653099 84.7652624,365.895338 84.5550108,368.279306 C84.4136348,369.402243 84.9755139,371.295608 84.2070083,372.349497 C82.5286211,374.591735 79.9403522,372.974561 78.541092,371.22656 C76.2319502,368.351988 75.3945691,365.335686 74.2744359,362.043193 C73.4370548,359.517495 70.990162,358.46724 70.0114049,355.872494 C69.0326478,353.277748 71.1315381,350.403176 70.2905319,348.091889 C69.2428993,345.359047 66.5132544,347.528604 64.5557402,348.586127 C59.172576,351.526112 58.6143219,354.262588 56.0949285,359.030526 C53.5791602,363.725781 50.1535103,364.005606 45.1183486,363.235178 C41.4824471,362.671892 38.2670487,361.970511 34.6311472,362.671892 C31.9015023,363.162496 28.8274799,364.427162 25.7498325,365.335686 C26.1703356,362.813622 24.9124514,360.920257 24.7021999,358.045685 C24.3505723,352.718097 22.2516821,343.258538 15.4728827,343.044127 C12.8846138,342.906031 8.89708479,344.098015 6.51906747,345.286365 C4.35492671,346.340254 2.74541498,347.881112 0.0882706313,347.601286" id="Fill-6" fill="#AFAFAF"></path>
            </g>
        </g>
    </g>
</svg>