<svg xmlns="http://www.w3.org/2000/svg" height="512pt" viewBox="0 -61 512 512" width="512pt"><path d="m181 15h90v60h-90zm0 0" fill="#c5d3dd"/><path d="m226 15h45v60h-45zm0 0" fill="#9facba"/><path d="m15 180h91v90H15zm0 0" fill="#575f64"/><path d="m362 180h120v150H362zm0 0" fill="#32393f"/><path d="m377 120h-46l-30 30v210l30 30h46c8.289062.0 15-6.710938 15-15V135c0-8.289062-6.710938-15-15-15zm0 0" fill="#575f64"/><path d="m331 75v315H196c-3.898438.0-7.800781-1.5-10.5-4.5L129.699219 330H121l-31-25.199219V150l31-30V75c0-8.402344 6.597656-15 15-15h180c8.402344.0 15 6.597656 15 15zm0 0" fill="#575f64"/><path d="m331 75v315H226V60h90c8.402344.0 15 6.597656 15 15zm0 0" fill="#32393f"/><path d="m15 330c-8.289062.0-15-6.710938-15-15V135c0-8.289062 6.710938-15 15-15s15 6.710938 15 15v180c0 8.289062-6.710938 15-15 15zm0 0" fill="#7c8388"/><path d="m331 15c0 8.398438-6.597656 15-15 15H136c-8.402344.0-15-6.601562-15-15 0-8.402344 6.597656-15 15-15h180c8.402344.0 15 6.597656 15 15zm0 0" fill="#e0f4ff"/><path d="m268.597656 218.398438-30 45C235.601562 267.597656 230.800781 270 226 270c-3 0-5.699219-.902344-8.402344-2.402344-6.898437-4.796875-8.699218-14.097656-4.199218-21L226 228l2.097656-3H196c-5.398438.0-10.5-3-13.199219-7.800781-2.703125-5.097657-2.402343-10.800781.601563-15.601563l30-45C216.398438 152.398438 221.199219 150 226 150c3 0 5.699219.597656 8.402344 2.398438 6.898437 4.800781 8.699218 14.101562 4.199218 21L226 192l-2.101562 3H256c5.398438.0 10.5 3 13.199219 7.800781 2.703125 5.097657 2.402343 10.800781-.601563 15.597657zm0 0" fill="#ffd396"/><path d="m316 30h-90V0h90c8.402344.0 15 6.597656 15 15 0 8.398438-6.597656 15-15 15zm0 0" fill="#c5d3dd"/><path d="m238.597656 173.398438L226 192v-42c3 0 5.699219.597656 8.402344 2.398438 6.898437 4.800781 8.699218 14.101562 4.195312 21zm0 0" fill="#ffb64c"/><path d="m268.597656 218.398438-30 45C235.601562 267.597656 230.800781 270 226 270v-42l2.101562-3H226v-30h30c5.398438.0 10.5 3 13.199219 7.800781 2.703125 5.097657 2.402343 10.800781-.601563 15.597657zm0 0" fill="#ffb64c"/><path d="m75 120c-8.289062.0-15 6.710938-15 15v180c0 8.289062 6.710938 15 15 15h46V120zm0 0" fill="#7c8388"/><path d="m497 360h-30c-8.289062.0-15-6.710938-15-15V165c0-8.289062 6.710938-15 15-15h30c8.289062.0 15 6.710938 15 15v180c0 8.289062-6.710938 15-15 15zm0 0" fill="#575f64"/></svg>