<?xml version="1.0" encoding="UTF-8"?> <!-- Generator: Adobe Illustrator 22.1.0, SVG Export Plug-In . SVG Version: 6.00 Build 0) --> <svg xmlns="http://www.w3.org/2000/svg" xmlns:xlink="http://www.w3.org/1999/xlink" id="Layer_1" x="0px" y="0px" viewBox="0 0 87 54" style="enable-background:new 0 0 87 54;" xml:space="preserve"> <style type="text/css"> .st0{fill:#334CFF;} </style> <title>logoHUD-02</title> <g id="Слой_2"> <path class="st0" d="M0,53.5V0h10.6v19.1h5V0h10.7v53.5H15.7V29.2h-5v24.3H0z"></path> <path class="st0" d="M33.7,50.2c-2.1-2.5-3.2-6.2-3.2-11.1V0h10.4v38.7c-0.1,1.4,0.1,2.7,0.5,4c0.5,1.2,1.8,1.7,3,1.2 c0.6-0.2,1-0.7,1.2-1.2c0.4-1.3,0.5-2.6,0.5-4V0h10.4v39.1c0,4.9-1.1,8.6-3.2,11.1c-2.1,2.5-5.4,3.7-9.8,3.7 C39.1,54,35.8,52.7,33.7,50.2z"></path> <path class="st0" d="M60.6,0h14.8c3.8,0,6.7,1,8.6,3.2s2.9,5.2,2.9,9.4l0.1,25c0,5.3-0.9,9.2-2.7,11.9c-1.9,2.7-5,4-9.3,4H60.6V0z M73.2,44c2,0,2.9-1,2.9-2.9V13.6c0-0.9-0.1-1.8-0.3-2.7c-0.1-0.5-0.5-1-1-1.2c-0.7-0.2-1.5-0.3-2.3-0.3h-1.2V44H73.2z"></path> </g> </svg> 