<!-- Generated by IcoMoon.io -->
<svg version="1.1" xmlns="http://www.w3.org/2000/svg" width="191" height="163" viewBox="0 0 191 163">
<title></title>
<g id="icomoon-ignore">
</g>
<path fill="#efab7e" d="M68.374 127.234l8.396-16.357 20.858 10.706-8.396 16.357z"></path>
<path fill="#efab7e" d="M89.867 60.121l39.292 24.342-17.355 33.908c-2.317 4.346-6.82 7.255-12.002 7.255-2.284 0-4.436-0.565-6.324-1.563l0.074 0.036-16.496-8.477c-2.018-1.044-3.686-2.51-4.935-4.291l-0.029-0.043c-1.512-2.148-2.417-4.819-2.417-7.701 0-2.272 0.562-4.412 1.555-6.29l-0.035 0.073z"></path>
<path fill="#e69e6d" d="M115.374 99.146v0.191c-1.811 3.481-5.391 5.818-9.516 5.818-1.781 0-3.461-0.436-4.939-1.206l0.059 0.028-11.455-5.842c-3.476-1.807-5.809-5.381-5.809-9.5 0-1.788 0.44-3.474 1.217-4.954l-0.028 0.058v-0.191c1.812-3.477 5.39-5.81 9.512-5.81 1.776 0 3.45 0.433 4.924 1.199l-0.059-0.028 11.455 5.842c3.481 1.811 5.818 5.391 5.818 9.516 0 1.781-0.436 3.461-1.206 4.939l0.028-0.059z"></path>
<path fill="#a6c0e4" d="M56.187 129.356l8.125-15.83 34.022 17.462-8.125 15.83z"></path>
<path fill="#fbbd91" d="M121.293 74.67l-6.739 13.154c-0.318 0.658-0.504 1.432-0.504 2.249 0 2.087 1.214 3.891 2.974 4.744l0.031 0.014 0.229 0.115c0.733 0.413 1.609 0.656 2.541 0.656 1.971 0 3.688-1.086 4.586-2.691l0.014-0.027 6.701-13.059c0.375-0.71 0.595-1.552 0.595-2.446 0-2.125-1.245-3.96-3.044-4.814l-0.032-0.014c-0.759-0.439-1.67-0.698-2.641-0.698-2.026 0-3.789 1.127-4.696 2.789l-0.014 0.028z"></path>
<path fill="#fbbd91" d="M109.57 72.646l-9.546 18.634c-0.379 0.72-0.602 1.573-0.602 2.479 0 2.089 1.185 3.901 2.92 4.8l0.030 0.014 0.783 0.42c0.718 0.375 1.569 0.596 2.47 0.596 2.090 0 3.903-1.182 4.809-2.914l0.014-0.030 9.546-18.634c0.38-0.726 0.603-1.586 0.603-2.499 0-2.11-1.192-3.941-2.94-4.857l-0.030-0.014-0.668-0.344c-0.732-0.387-1.6-0.615-2.521-0.615-2.107 0-3.936 1.189-4.853 2.933l-0.014 0.030z"></path>
<path fill="#fbbd91" d="M104.682 59.186l-11.455 22.51c-0.385 0.724-0.611 1.584-0.611 2.496 0 2.047 1.138 3.828 2.817 4.745l0.028 0.014 0.783 0.401c0.72 0.379 1.573 0.602 2.479 0.602 2.089 0 3.901-1.185 4.8-2.92l0.014-0.030 11.589-22.51c0.382-0.728 0.607-1.591 0.607-2.506 0-2.119-1.203-3.957-2.962-4.868l-0.031-0.014-0.649-0.344c-0.726-0.378-1.586-0.6-2.497-0.6-2.135 0-3.985 1.216-4.896 2.994l-0.015 0.031z"></path>
<path fill="#fbbd91" d="M89.867 60.121l1.165 19.34c0.277 2.653 2.501 4.704 5.205 4.704 0.184 0 0.366-0.010 0.546-0.028l-0.022 0.002h0.878c2.84-0.064 5.118-2.381 5.118-5.23 0-0.034-0-0.068-0.001-0.102v0.005l-1.184-19.398c-0.28-2.682-2.529-4.755-5.262-4.755-0.164 0-0.326 0.007-0.487 0.022l0.021-0.002h-0.725c-2.909 0.042-5.252 2.411-5.252 5.326 0 0.040 0 0.081 0.001 0.121l-0-0.006z"></path>
<path fill="#075092" d="M92.177 143.401l-36.581-18.787-19.818 38.604h51.129l9.164-17.813-3.895-2.005z"></path>
<path fill="#18365f" d="M86.908 163.219l9.164-17.813-3.895-2.005-15.598-8-1.737 3.417-12.524 24.4h24.591z"></path>
<path fill="#fff" d="M79.977 141.664c1.149 0.599 1.919 1.781 1.919 3.142 0 1.951-1.581 3.532-3.532 3.532s-3.532-1.581-3.532-3.532c0-0.59 0.145-1.146 0.4-1.634l-0.009 0.019c0.605-1.144 1.788-1.911 3.149-1.911 0.585 0 1.138 0.142 1.624 0.393l-0.020-0.009zM75.452 150.485c1.149 0.599 1.919 1.781 1.919 3.142 0 1.951-1.581 3.532-3.532 3.532s-3.532-1.581-3.532-3.532c0-0.59 0.145-1.146 0.4-1.634l-0.009 0.019c0.599-1.147 1.78-1.917 3.141-1.917 0.589 0 1.144 0.144 1.632 0.399l-0.019-0.009zM43.473 8.897l-41.564 35.13c-0.622 0.529-1.014 1.312-1.014 2.187 0 0.703 0.254 1.348 0.674 1.846l-0.004-0.004 49.983 58.995c0.529 0.622 1.312 1.014 2.187 1.014 0.703 0 1.348-0.254 1.846-0.674l-0.004 0.004 41.525-35.13c0.601-0.524 0.978-1.292 0.978-2.147 0-0.723-0.27-1.383-0.714-1.885l0.003 0.003-49.85-58.995c-0.532-0.623-1.319-1.016-2.197-1.016-0.707 0-1.354 0.254-1.855 0.676l0.004-0.004z"></path>
<path fill="#ebeff0" d="M53.744 109.016h-0.286c-1.047-0.095-1.961-0.599-2.592-1.35l-0.005-0.006-49.964-58.976c-0.56-0.66-0.901-1.522-0.901-2.463 0-1.169 0.526-2.216 1.353-2.916l0.006-0.005 41.506-35.13c0.662-0.566 1.528-0.91 2.474-0.91 0.11 0 0.219 0.005 0.327 0.014l-0.014-0.001c1.042 0.102 1.952 0.597 2.593 1.332l0.004 0.005 49.926 58.995c0.56 0.66 0.901 1.522 0.901 2.463 0 1.169-0.526 2.216-1.353 2.916l-0.006 0.005-41.506 35.13c-0.659 0.558-1.52 0.897-2.459 0.897-0.001 0-0.003 0-0.004 0h0zM45.325 9.183c-0.029-0.002-0.064-0.003-0.099-0.003-0.422 0-0.812 0.137-1.129 0.369l0.005-0.004-41.525 35.206c-0.41 0.352-0.668 0.871-0.668 1.451 0 0.475 0.173 0.909 0.46 1.244l-0.002-0.003 49.907 58.995c0.319 0.375 0.776 0.623 1.291 0.668l0.007 0c0.050 0.005 0.108 0.007 0.167 0.007 0.469 0 0.898-0.169 1.23-0.449l-0.003 0.002 41.525-35.13c0.364-0.327 0.609-0.779 0.667-1.289l0.001-0.009c0.004-0.044 0.006-0.095 0.006-0.146 0-0.478-0.176-0.915-0.466-1.25l0.002 0.002-49.907-58.995c-0.319-0.375-0.776-0.623-1.291-0.668l-0.007-0z"></path>
<path fill="#c84542" d="M32.819 61.763c-0.277-0.621-0.438-1.345-0.438-2.107 0-1.458 0.59-2.779 1.545-3.736l-0 0c0.983-0.818 2.259-1.315 3.651-1.315 0.431 0 0.852 0.048 1.256 0.138l-0.038-0.007c2.963 0.685 5.139 3.301 5.139 6.426 0 0.191-0.008 0.38-0.024 0.567l0.002-0.024c-0.172 2.119-0.916 12.009-0.916 12.009l-11.971-1.050c-3.324-0.2-5.973-2.83-6.204-6.127l-0.001-0.021c-0.008-0.112-0.012-0.242-0.012-0.373 0-1.684 0.741-3.194 1.915-4.223l0.006-0.006c0.859-0.618 1.932-0.989 3.092-0.989 1.064 0 2.055 0.312 2.886 0.849l-0.021-0.013zM14.529 40.628c0.609-0.53 1.317-0.968 2.088-1.28l0.050-0.018c0.566-0.221 1.222-0.35 1.908-0.35 0.088 0 0.175 0.002 0.262 0.006l-0.012-0c0.736 0.024 1.422 0.212 2.031 0.528l-0.026-0.012c0.673 0.353 1.238 0.821 1.691 1.384l0.008 0.010c0.409 0.463 0.749 1 0.997 1.584l0.015 0.039c0.206 0.508 0.367 1.1 0.454 1.716l0.005 0.040c0.024 0.286 0.037 0.619 0.037 0.955s-0.014 0.669-0.040 0.998l0.003-0.043v2.043l-0.382 5.231c0.279-0.434 0.556-0.808 0.854-1.162l-0.014 0.017c0.28-0.333 0.573-0.632 0.888-0.908l0.009-0.008 2.654-2.234c0.255-0.237 0.597-0.382 0.974-0.382 0.007 0 0.013 0 0.020 0h-0.001c0.356 0.026 0.667 0.198 0.876 0.456l0.002 0.002 1.47 1.756-9.928 8.4-0.821-0.974c-0.168-0.194-0.305-0.423-0.396-0.672l-0.005-0.015c-0.037-0.14-0.058-0.302-0.058-0.468s0.021-0.327 0.061-0.481l-0.003 0.013 0.592-7.541v-1.776c-0.020-0.543-0.075-1.056-0.163-1.558l0.010 0.069c-0.102-0.473-0.24-0.888-0.417-1.281l0.016 0.040c-0.213-0.407-0.447-0.757-0.715-1.079l0.008 0.010c-0.349-0.49-0.871-0.837-1.475-0.952l-0.015-0.002c-0.056-0.005-0.122-0.009-0.188-0.009-0.558 0-1.064 0.222-1.436 0.582l0-0c-0.212 0.176-0.39 0.385-0.529 0.619l-0.006 0.011c-0.12 0.198-0.218 0.426-0.282 0.669l-0.004 0.018c-0.018 0.106-0.028 0.229-0.028 0.353s0.010 0.247 0.030 0.366l-0.002-0.013c0.024 0.26 0.078 0.5 0.159 0.727l-0.006-0.020c0.103 0.227 0.163 0.493 0.163 0.773 0 0.071-0.004 0.141-0.011 0.21l0.001-0.008c-0.080 0.295-0.249 0.544-0.474 0.723l-0.003 0.002-0.229 0.172-0.248 0.172-1.909 1.050c-0.438-0.667-0.769-1.447-0.947-2.284l-0.008-0.045c-0.068-0.339-0.107-0.728-0.107-1.126s0.039-0.788 0.113-1.164l-0.006 0.038c0.166-0.773 0.457-1.458 0.854-2.066l-0.014 0.023c0.453-0.718 0.984-1.334 1.594-1.862l0.010-0.009z"></path>
<path fill="#fff" d="M85.266 1.088l-51.797 16.572c-1.188 0.381-2.033 1.476-2.033 2.769 0 0.299 0.045 0.588 0.13 0.86l-0.005-0.021 23.617 73.6c0.365 1.191 1.455 2.043 2.744 2.043 0.309 0 0.606-0.049 0.885-0.139l-0.020 0.006 51.778-16.591c1.19-0.373 2.038-1.466 2.038-2.756 0-0.304-0.047-0.597-0.134-0.873l0.006 0.020-23.598-73.639c-0.365-1.191-1.455-2.043-2.744-2.043-0.309 0-0.606 0.049-0.885 0.139l0.020-0.006z"></path>
<path fill="#ebeff0" d="M57.907 97.809c-1.689-0.004-3.12-1.104-3.62-2.627l-0.008-0.027-23.56-73.6c-0.114-0.346-0.18-0.745-0.18-1.159 0-1.689 1.096-3.122 2.616-3.625l0.027-0.008 51.797-16.572c0.336-0.107 0.723-0.169 1.124-0.169 1.685 0 3.115 1.091 3.622 2.605l0.008 0.027 23.598 73.6c0.118 0.351 0.186 0.756 0.186 1.176 0 1.691-1.099 3.125-2.622 3.627l-0.027 0.008-51.797 16.572c-0.348 0.108-0.749 0.171-1.164 0.172h-0.001zM86.144 1.909c-0.206 0.003-0.402 0.037-0.586 0.099l0.013-0.004-51.797 16.572c-0.818 0.228-1.408 0.966-1.408 1.842 0 0.208 0.033 0.408 0.095 0.596l-0.004-0.014 23.636 73.581c0.259 0.767 0.973 1.31 1.813 1.31 0.205 0 0.402-0.032 0.587-0.092l-0.014 0.004 51.797-16.572c0.492-0.155 0.889-0.49 1.121-0.925l0.005-0.010c0.13-0.251 0.207-0.549 0.207-0.864 0-0.21-0.034-0.411-0.096-0.6l0.004 0.014-23.56-73.6c-0.155-0.492-0.49-0.889-0.925-1.121l-0.010-0.005c-0.256-0.129-0.558-0.206-0.877-0.21h-0.001z"></path>
<path fill="#222533" d="M60.465 56.207c0.484 1.456 1.131 2.721 1.94 3.864l-0.031-0.046c0.027 0.030 0.044 0.070 0.044 0.115s-0.017 0.084-0.044 0.115l0-0-5.174 1.642s-0.172 0-0.172-0.134c-0.033-1.502-0.268-2.936-0.679-4.295l0.029 0.113c-0.512 0.709-1.233 1.238-2.072 1.501l-0.029 0.008c-0.441 0.149-0.949 0.235-1.477 0.235-2.165 0-3.993-1.448-4.567-3.428l-0.008-0.034c-0.069-0.3-0.109-0.644-0.109-0.998 0-1.216 0.47-2.323 1.238-3.148l-0.003 0.003c0.756-0.962 1.891-1.597 3.176-1.679l0.013-0.001c-1.374-0.822-2.28-2.303-2.28-3.995 0-2.562 2.077-4.639 4.639-4.639s4.639 2.077 4.639 4.639c0 0.642-0.131 1.254-0.366 1.81l0.011-0.030c0.663-0.417 1.47-0.665 2.334-0.665 0.455 0 0.893 0.069 1.306 0.196l-0.031-0.008c1.496 0.338 2.7 1.354 3.291 2.7l0.012 0.030c0.172 0.471 0.271 1.015 0.271 1.582 0 2.13-1.4 3.932-3.33 4.537l-0.034 0.009c-0.385 0.127-0.828 0.201-1.289 0.201s-0.904-0.073-1.319-0.209l0.030 0.008zM46.719 19.226c0.712-0.242 1.532-0.382 2.385-0.382 0.021 0 0.041 0 0.062 0h-0.003c0.737 0.028 1.429 0.194 2.060 0.472l-0.036-0.014c0.607 0.27 1.122 0.643 1.543 1.104l0.003 0.004c0.396 0.462 0.709 1.009 0.907 1.608l0.010 0.034c0.156 0.448 0.265 0.968 0.304 1.507l0.001 0.020c0.003 0.053 0.004 0.115 0.004 0.177 0 0.386-0.057 0.759-0.164 1.11l0.007-0.027c-0.145 0.402-0.339 0.749-0.579 1.059l0.007-0.009c-0.276 0.345-0.583 0.646-0.923 0.907l-0.013 0.009c0.070-0.004 0.153-0.007 0.235-0.007 1.889 0 3.48 1.276 3.958 3.014l0.007 0.029c0.196 0.569 0.309 1.224 0.309 1.906 0 0.25-0.015 0.496-0.045 0.738l0.003-0.029c-0.109 0.813-0.394 1.544-0.814 2.176l0.012-0.019c-0.445 0.669-0.998 1.228-1.64 1.667l-0.021 0.013c-0.642 0.443-1.382 0.812-2.172 1.071l-0.061 0.017c-0.688 0.242-1.484 0.4-2.31 0.438l-0.019 0.001c-0.092 0.006-0.199 0.009-0.307 0.009-0.609 0-1.193-0.108-1.733-0.307l0.035 0.011c-0.698-0.252-1.301-0.608-1.821-1.056l0.007 0.006c-0.63-0.531-1.182-1.12-1.66-1.767l-0.020-0.028 1.451-1.222c0.117-0.097 0.249-0.185 0.388-0.261l0.013-0.006c0.115-0.067 0.248-0.125 0.387-0.168l0.014-0.004c0.112-0.023 0.24-0.037 0.372-0.037s0.26 0.013 0.385 0.039l-0.012-0.002c0.24 0.037 0.45 0.147 0.611 0.306l-0-0c0.444 0.467 0.986 0.837 1.593 1.078l0.030 0.011c0.233 0.086 0.502 0.135 0.783 0.135s0.55-0.050 0.799-0.141l-0.016 0.005c0.399-0.113 0.744-0.304 1.034-0.556l-0.003 0.003c0.254-0.219 0.459-0.486 0.605-0.787l0.006-0.015c0.131-0.262 0.208-0.57 0.21-0.897v-0c0.003-0.047 0.005-0.102 0.005-0.158 0-0.271-0.044-0.532-0.125-0.776l0.005 0.017c-0.118-0.384-0.254-0.713-0.417-1.026l0.016 0.033c-0.151-0.283-0.389-0.503-0.678-0.627l-0.009-0.003c-0.274-0.111-0.593-0.175-0.926-0.175-0.118 0-0.234 0.008-0.347 0.024l0.013-0.001c-0.779 0.084-1.49 0.253-2.164 0.498l0.064-0.020-0.821-2.597c0.655-0.192 1.224-0.446 1.752-0.763l-0.033 0.019c0.365-0.196 0.666-0.466 0.892-0.794l0.005-0.008c0.168-0.233 0.268-0.525 0.268-0.84 0-0.014-0-0.027-0-0.040v0.002c-0.021-0.348-0.089-0.673-0.199-0.979l0.008 0.025c-0.144-0.611-0.508-1.118-1.003-1.446l-0.009-0.005c-0.25-0.116-0.542-0.183-0.85-0.183s-0.6 0.067-0.862 0.188l0.013-0.005c-0.525 0.148-0.961 0.466-1.255 0.89l-0.005 0.007c-0.147 0.182-0.259 0.4-0.322 0.637l-0.003 0.012c-0.070 0.208-0.117 0.449-0.133 0.698l-0 0.008c-0.001 0.344-0.093 0.667-0.253 0.945l0.005-0.009c-0.172 0.244-0.424 0.422-0.717 0.495l-0.009 0.002h-0.554l-2.1 0.286c-0.078-0.382-0.122-0.82-0.122-1.27s0.045-0.888 0.13-1.312l-0.007 0.042c0.299-1.522 1.166-2.802 2.368-3.634l0.019-0.012c0.631-0.442 1.359-0.811 2.135-1.071l0.060-0.017z"></path>
<path fill="#fff" d="M123.526 4.124h-54.394c-1.582 0-2.864 1.282-2.864 2.864v0 77.285c0 1.582 1.282 2.864 2.864 2.864v0h54.375c1.582 0 2.864-1.282 2.864-2.864v0-77.285c0-1.582-1.282-2.864-2.864-2.864v0z"></path>
<path fill="#ebeff0" d="M123.469 88.091h-54.375c-2.109 0-3.818-1.71-3.818-3.818v0-77.285c0-2.109 1.71-3.818 3.818-3.818v0h54.394c2.109 0 3.818 1.71 3.818 3.818v0 77.285c0 2.109-1.71 3.818-3.818 3.818v0zM69.133 5.040c-1.054 0-1.909 0.855-1.909 1.909v0 77.285c0 1.054 0.855 1.909 1.909 1.909v0h54.375c0.003 0 0.007 0 0.011 0 0.525 0 1-0.211 1.345-0.554l-0 0c0.342-0.345 0.554-0.82 0.554-1.344 0-0.004 0-0.008 0-0.012v0.001-77.285c-0.008-0.524-0.225-0.996-0.572-1.336l-0-0c-0.341-0.347-0.812-0.565-1.335-0.573h-54.395z"></path>
<path fill="#c84542" d="M81.218 32.514l-8.973 10.673 8.458 11.112 8.973-10.673-8.458-11.112zM87.308 9.832v1.623c0.003 0.047 0.004 0.103 0.004 0.158 0 0.353-0.057 0.692-0.163 1.010l0.007-0.022c-0.090 0.302-0.187 0.555-0.301 0.799l0.015-0.035-6.472 13.708c-0.177 0.373-0.437 0.681-0.757 0.912l-0.007 0.005c-0.332 0.229-0.742 0.366-1.184 0.366-0.040 0-0.080-0.001-0.119-0.003l0.005 0h-2.883l6.644-13.269c0.175-0.373 0.366-0.692 0.584-0.991l-0.012 0.017c0.219-0.271 0.437-0.514 0.668-0.745v0h-8.152c-0.049 0.009-0.105 0.015-0.162 0.015s-0.113-0.005-0.168-0.016l0.006 0.001c-0.11-0.051-0.205-0.115-0.287-0.192l0.001 0.001c-0.083-0.078-0.148-0.174-0.189-0.281l-0.002-0.005c-0.014-0.049-0.021-0.105-0.021-0.162s0.008-0.114 0.022-0.167l-0.001 0.004v-2.749z"></path>
<path fill="#fff" d="M163.372 40.456l-44.408-31.407c-0.461-0.332-1.038-0.53-1.66-0.53-0.957 0-1.804 0.469-2.324 1.19l-0.006 0.008-44.618 63.1c-0.332 0.46-0.532 1.035-0.532 1.656 0 0.963 0.478 1.814 1.21 2.328l0.009 0.006 44.389 31.407c0.46 0.332 1.035 0.532 1.656 0.532 0.963 0 1.814-0.478 2.328-1.21l0.006-0.009 44.638-63.004c0.322-0.457 0.515-1.025 0.515-1.639 0-0.958-0.471-1.807-1.194-2.327l-0.009-0.006z"></path>
<path fill="#ebeff0" d="M117.073 109.685c-0.003 0-0.007 0-0.010 0-0.818 0-1.576-0.257-2.198-0.695l0.012 0.008-44.389-31.407c-0.984-0.7-1.618-1.836-1.618-3.121 0-0.827 0.263-1.592 0.71-2.218l-0.008 0.012 44.638-63.004c0.701-0.979 1.834-1.609 3.114-1.609 0.821 0 1.582 0.259 2.205 0.701l-0.012-0.008 44.408 31.33c0.802 0.577 1.367 1.442 1.543 2.44l0.003 0.023c0.034 0.192 0.054 0.412 0.054 0.637 0 0.827-0.263 1.594-0.71 2.219l0.008-0.011-44.542 63.1c-0.586 0.805-1.455 1.373-2.458 1.562l-0.024 0.004zM117.322 9.546c-0.003 0-0.007 0-0.010 0-0.639 0-1.205 0.314-1.551 0.796l-0.004 0.006-44.618 63.023c-0.223 0.296-0.357 0.669-0.357 1.074 0 0.12 0.012 0.237 0.034 0.35l-0.002-0.011c0.090 0.516 0.376 0.952 0.777 1.237l0.006 0.004 44.389 31.407c0.307 0.221 0.691 0.353 1.106 0.353 0.115 0 0.228-0.010 0.338-0.030l-0.012 0.002c0.508-0.095 0.937-0.38 1.218-0.777l0.004-0.006 44.638-63.062c0.218-0.316 0.348-0.707 0.348-1.128 0-0.107-0.008-0.212-0.025-0.315l0.001 0.011c-0.090-0.516-0.376-0.952-0.777-1.237l-0.006-0.004-44.447-31.426c-0.279-0.169-0.616-0.269-0.977-0.269-0.026 0-0.051 0-0.077 0.002l0.004-0z"></path>
<path fill="#c84542" d="M112.453 39.234l-13.498 3.532 0.496 13.937 13.479-3.532-0.477-13.937zM127.574 33.469c-0.464 0.649-0.966 1.217-1.52 1.731l-0.007 0.007c-0.52 0.47-1.102 0.887-1.728 1.236l-0.048 0.024c-0.549 0.331-1.182 0.611-1.852 0.807l-0.057 0.014c-0.627 0.172-1.349 0.276-2.094 0.286h-0.006l0.878 6.892-2.959-2.043c-0.383-0.274-0.716-0.582-1.005-0.927l-0.007-0.008c-0.27-0.347-0.445-0.78-0.477-1.253l-0-0.007-0.382-3.437c-0.363-0.153-0.706-0.324-1.031-0.496-0.389-0.212-0.719-0.427-1.033-0.664l0.021 0.015c-1.125-0.766-2.061-1.72-2.783-2.826l-0.023-0.038c-0.902-1.369-1.439-3.047-1.439-4.852 0-0.752 0.093-1.481 0.269-2.178l-0.013 0.061c0.329-1.317 0.875-2.472 1.605-3.486l-0.020 0.030c0.736-1.049 1.63-1.931 2.656-2.631l0.036-0.023c0.95-0.622 2.066-1.082 3.265-1.308l0.057-0.009c0.446-0.075 0.96-0.118 1.484-0.118 0.767 0 1.513 0.092 2.227 0.264l-0.064-0.013c1.384 0.345 2.597 0.925 3.657 1.701l-0.029-0.020c1.107 0.772 2.030 1.724 2.744 2.824l0.024 0.039c0.636 0.971 1.098 2.115 1.31 3.345l0.008 0.053c0.079 0.441 0.125 0.949 0.125 1.467 0 0.747-0.094 1.472-0.272 2.163l0.013-0.060c-0.311 1.307-0.838 2.457-1.549 3.469l0.021-0.032zM123.985 30.929c0.473-0.635 0.862-1.369 1.129-2.159l0.016-0.056c0.162-0.479 0.255-1.031 0.255-1.604 0-0.182-0.009-0.361-0.028-0.538l0.002 0.022c-0.067-0.716-0.3-1.366-0.659-1.926l0.010 0.017c-0.847-1.242-2.1-2.153-3.564-2.548l-0.044-0.010c-0.304-0.077-0.653-0.122-1.012-0.122s-0.708 0.044-1.041 0.128l0.029-0.006c-0.73 0.187-1.369 0.503-1.922 0.926l0.013-0.009c-0.663 0.518-1.23 1.116-1.701 1.787l-0.018 0.026c-0.473 0.639-0.856 1.381-1.111 2.18l-0.015 0.054c-0.174 0.481-0.274 1.036-0.274 1.614 0 0.178 0.010 0.353 0.028 0.526l-0.002-0.022c0.075 0.717 0.314 1.366 0.678 1.926l-0.010-0.017c0.419 0.644 0.947 1.178 1.565 1.591l0.020 0.013c0.573 0.433 1.25 0.763 1.985 0.947l0.038 0.008c0.287 0.070 0.616 0.11 0.955 0.11s0.668-0.040 0.983-0.116l-0.029 0.006c0.73-0.187 1.369-0.503 1.922-0.926l-0.013 0.009c0.7-0.521 1.299-1.126 1.797-1.809l0.017-0.024z"></path>
<path fill="#fff" d="M189.643 81.581l-25.087-48.246c-0.49-0.915-1.44-1.527-2.533-1.527-0.469 0-0.911 0.113-1.302 0.312l0.016-0.007-68.598 35.645c-0.915 0.49-1.527 1.44-1.527 2.533 0 0.469 0.113 0.911 0.312 1.302l-0.007-0.016 25.087 48.284c0.484 0.918 1.432 1.533 2.524 1.533 0.472 0 0.918-0.115 1.31-0.319l-0.016 0.007 68.598-35.645c0.915-0.49 1.527-1.44 1.527-2.533 0-0.469-0.113-0.911-0.312-1.302l0.007 0.016z"></path>
<path fill="#ebeff0" d="M118.543 122.362c-0.004 0-0.008 0-0.013 0-0.404 0-0.794-0.063-1.16-0.179l0.027 0.007c-0.989-0.319-1.784-1.002-2.243-1.888l-0.010-0.021-25.087-48.227c-0.273-0.513-0.434-1.122-0.434-1.768 0-1.45 0.808-2.711 1.999-3.358l0.020-0.010 68.617-35.664c0.507-0.266 1.107-0.422 1.744-0.422 1.468 0 2.742 0.828 3.381 2.043l0.010 0.021 25.087 48.246c0.268 0.509 0.426 1.112 0.426 1.752 0 1.462-0.821 2.732-2.028 3.373l-0.021 0.010-68.579 35.664c-0.505 0.264-1.103 0.419-1.737 0.42h-0zM162.016 32.743c-0.321 0.004-0.622 0.081-0.89 0.215l0.012-0.005-68.56 35.645c-0.62 0.324-1.036 0.962-1.036 1.698 0 0.321 0.080 0.624 0.22 0.89l-0.005-0.010 25.087 48.246c0.234 0.453 0.632 0.795 1.113 0.951l0.014 0.004c0.169 0.054 0.362 0.085 0.564 0.085 0.324 0 0.63-0.081 0.898-0.224l-0.010 0.005 68.56-35.645c0.603-0.329 1.006-0.958 1.006-1.682 0-0.298-0.068-0.579-0.19-0.831l0.005 0.011-25.087-48.322c-0.325-0.617-0.962-1.031-1.695-1.031-0.001 0-0.003 0-0.004 0h0z"></path>
<path fill="#c84542" d="M140.442 59.491c0.289-0.056 0.622-0.087 0.962-0.087 1.883 0 3.539 0.977 4.486 2.453l0.013 0.021c0.371 0.729 0.588 1.59 0.588 2.501s-0.217 1.772-0.603 2.533l0.015-0.032c-1.093 2.213-3.334 3.709-5.925 3.709-0.714 0-1.401-0.114-2.045-0.324l0.047 0.013-11.455-3.551s3.036-9.431 3.666-11.455c0.862-2.703 3.35-4.627 6.288-4.627 0.368 0 0.729 0.030 1.081 0.088l-0.038-0.005c1.77 0.295 3.235 1.389 4.033 2.891l0.015 0.030c0.264 0.609 0.417 1.318 0.417 2.062 0 1.479-0.605 2.817-1.581 3.779l-0.001 0.001zM156.174 47.482l0.324 0.611c0.194 0.493 0.629 0.852 1.156 0.934l0.008 0.001 7.293 0.916c0.364 0.040 0.69 0.178 0.959 0.385l-0.004-0.003c0.263 0.246 0.481 0.537 0.641 0.861l0.008 0.018 1.718 3.303-9.164-1.413c-0.332-0.052-0.627-0.132-0.909-0.239l0.031 0.010c-0.274-0.114-0.506-0.236-0.727-0.375l0.020 0.012c0.021 0.132 0.033 0.285 0.033 0.44 0 0.587-0.168 1.134-0.46 1.596l0.007-0.012-5.040 8.935-1.776-3.398c-0.085-0.163-0.169-0.358-0.239-0.561l-0.009-0.031c-0.008-0.072-0.013-0.155-0.013-0.239s0.005-0.167 0.014-0.249l-0.001 0.010c-0.009-0.060-0.014-0.13-0.014-0.2s0.005-0.14 0.015-0.208l-0.001 0.008c0.045-0.146 0.104-0.272 0.176-0.389l-0.004 0.007 3.818-6.701c0.122-0.187 0.194-0.415 0.194-0.66 0-0.030-0.001-0.059-0.003-0.088l0 0.004c-0.052-0.344-0.166-0.653-0.331-0.928l0.006 0.011-0.477-0.916-6.988 3.628-1.909-3.818 16.438-8.553 1.909 3.818z"></path>
<path fill="#fbbd91" d="M78.011 116.176l3.016 1.413c2.852-3.297 4.59-7.626 4.59-12.361 0-0.353-0.010-0.704-0.029-1.052l0.002 0.048v-0.153c-0.25-4.003-1.697-7.626-3.984-10.563l0.032 0.043-3.666-4.716c6.873-2.921 12.009-8.649 9.145-15.713l-0.267-0.573-19.13 7.637c-3.817 1.556-6.458 5.238-6.458 9.537 0 1.666 0.397 3.239 1.1 4.631l-0.027-0.059 2.348 4.792 5.040 10.195c1.279 3.011 3.735 5.311 6.774 6.353l0.080 0.024z"></path>
</svg>
